<svg width="40" height="41" viewBox="0 0 40 41" fill="none" xmlns="http://www.w3.org/2000/svg">
<path d="M25.5998 14.8571H27.1998M15.1998 10.0571H24.7998C28.3344 10.0571 31.1998 12.9225 31.1998 16.4571V26.0571C31.1998 29.5917 28.3344 32.4571 24.7998 32.4571H15.1998C11.6652 32.4571 8.7998 29.5917 8.7998 26.0571V16.4571C8.7998 12.9225 11.6652 10.0571 15.1998 10.0571ZM19.9998 26.0571C17.3488 26.0571 15.1998 23.9081 15.1998 21.2571C15.1998 18.6062 17.3488 16.4571 19.9998 16.4571C22.6508 16.4571 24.7998 18.6062 24.7998 21.2571C24.7998 23.9081 22.6508 26.0571 19.9998 26.0571Z" stroke="#333333" stroke-width="1.5"/>
</svg>
