<svg width="443" height="157" viewBox="0 0 443 157" fill="none" xmlns="http://www.w3.org/2000/svg">
<g clip-path="url(#clip0_118_18)">
<path d="M41.5654 39.24H28.917V40.7982H41.5654V39.24Z" fill="#06400C"/>
<path d="M66.5134 21.5707L40.9209 47.3316V42.1087H29.5566V58.768L21.5708 66.8043V76.8316L66.5134 31.6029L111.449 76.8316V66.8043L66.5134 21.5707Z" fill="#06400C"/>
<path d="M109.561 78.1133L66.5135 34.777L23.4537 78.1133V128.014H22.4246V134.302H75.3987V110.727C75.3987 105.341 79.7631 100.974 85.1519 100.974H87.4387C92.8251 100.974 97.1919 105.339 97.1919 110.727V134.302H111.076V128.014H109.561V78.1133ZM68.62 52.0326C72.2005 52.7564 75.0212 55.5266 75.8628 59.0638H68.62V52.0326ZM64.8856 52.0326V59.0638H57.6429C58.4845 55.5266 61.3051 52.7564 64.8856 52.0326ZM54.9232 104.776H48.058V94.7005H54.9232V104.776ZM44.3236 94.6981V104.774H37.4583V94.6981H44.3236ZM37.4583 108.513H44.3236V118.586H37.4583V108.513ZM48.058 118.586V108.513H54.9232V118.586H48.058ZM57.5226 62.7982H64.8856V70.4305C61.1055 69.6634 58.1695 66.6216 57.5226 62.7982ZM68.62 70.4305V62.7982H75.983C75.3362 66.6216 72.4001 69.6634 68.62 70.4305Z" fill="#06400C"/>
<path d="M92.2574 121.842C93.4885 121.842 94.4865 120.844 94.4865 119.613C94.4865 118.381 93.4885 117.383 92.2574 117.383C91.0263 117.383 90.0283 118.381 90.0283 119.613C90.0283 120.844 91.0263 121.842 92.2574 121.842Z" fill="#06400C"/>
<path d="M138.158 64.1663H150.227V68.9039H138.158V79.1399H132.66V53.8612H151.818V58.5988H138.158V64.1663ZM161.293 77.8604C159.218 76.6846 157.57 75.0881 156.348 73.0709C155.126 71.0537 154.515 68.8578 154.515 66.4833C154.515 64.1318 155.126 61.9474 156.348 59.9302C157.57 57.9129 159.218 56.3165 161.293 55.1407C163.368 53.965 165.639 53.3771 168.105 53.3771C170.572 53.3771 172.854 53.965 174.952 55.1407C177.05 56.3165 178.71 57.9129 179.932 59.9302C181.154 61.9474 181.765 64.1318 181.765 66.4833C181.765 68.8578 181.154 71.0537 179.932 73.0709C178.71 75.0881 177.05 76.6846 174.952 77.8604C172.854 79.0361 170.572 79.624 168.105 79.624C165.639 79.624 163.368 79.0361 161.293 77.8604ZM164.025 59.4806C162.78 60.2299 161.789 61.2269 161.051 62.4719C160.313 63.7168 159.944 65.0539 159.944 66.4833C159.944 67.9126 160.313 69.2555 161.051 70.5119C161.789 71.7684 162.78 72.777 164.025 73.5378C165.27 74.2985 166.63 74.6789 168.105 74.6789C169.581 74.6789 170.947 74.2985 172.203 73.5378C173.46 72.777 174.451 71.7684 175.177 70.5119C175.903 69.2555 176.266 67.9126 176.266 66.4833C176.266 65.0539 175.903 63.7168 175.177 62.4719C174.451 61.2269 173.46 60.2299 172.203 59.4806C170.947 58.7314 169.581 58.3567 168.105 58.3567C166.63 58.3567 165.27 58.7314 164.025 59.4806ZM186.226 79.1399V53.8612H197.465C199.263 53.8612 200.854 54.2301 202.237 54.9678C203.62 55.7055 204.692 56.743 205.453 58.0801C206.214 59.4172 206.594 60.9388 206.594 62.6448C206.594 64.466 206.133 66.0913 205.211 67.5207C204.289 68.95 203.032 69.999 201.441 70.6675C203.078 72.7424 205.257 75.5665 207.977 79.1399H201.441C199.966 77.2956 197.949 74.6674 195.39 71.2554H191.655V79.1399H186.226ZM197.465 66.5178C198.41 66.5178 199.263 66.1778 200.024 65.4977C200.784 64.8176 201.165 63.8666 201.165 62.6448C201.165 61.6534 200.9 60.7313 200.369 59.8783C199.839 59.0253 198.871 58.5988 197.465 58.5988H191.655V66.5178H197.465ZM216.865 64.2355H228.968V69.0077H216.865V74.4023H230.559V79.1399H211.401V53.8612H230.559V58.5988H216.865V64.2355ZM241.348 73.728C242.985 74.385 244.483 74.7135 245.843 74.7135C247.273 74.7135 248.408 74.4369 249.25 73.8836C250.091 73.3303 250.512 72.6732 250.512 71.9125C250.512 71.29 250.264 70.7828 249.768 70.3909C249.273 69.999 248.644 69.705 247.884 69.5091C247.123 69.3131 246.12 69.0999 244.875 68.8693C243.215 68.5927 241.694 68.2354 240.31 67.7973C238.927 67.3593 237.671 66.5985 236.541 65.515C235.411 64.4315 234.847 62.9675 234.847 61.1232C234.847 58.4028 235.844 56.449 237.838 55.2617C239.832 54.0745 242.178 53.4808 244.875 53.4808C246.95 53.4808 248.754 53.7632 250.287 54.3281C251.82 54.8929 253.347 55.7401 254.869 56.8698L251.826 61.0195C250.696 60.2126 249.52 59.5786 248.299 59.1175C247.077 58.6564 245.866 58.4259 244.668 58.4259C243.607 58.4259 242.616 58.6161 241.694 58.9965C240.771 59.3769 240.31 60.0166 240.31 60.9157C240.31 61.469 240.547 61.9128 241.019 62.2471C241.492 62.5814 242.011 62.8234 242.575 62.9733C243.14 63.1231 244.057 63.3364 245.325 63.613L246.57 63.8551C248.483 64.224 250.068 64.6332 251.324 65.0827C252.581 65.5323 253.67 66.2873 254.592 67.3478C255.514 68.4083 255.976 69.8837 255.976 71.7741C255.976 74.3331 255.071 76.2812 253.261 77.6183C251.451 78.9555 249.002 79.624 245.913 79.624C241.394 79.624 237.59 78.3099 234.501 75.6818L237.406 71.4975C238.397 72.3274 239.711 73.0709 241.348 73.728ZM269.566 58.5988V79.1399H264.068V58.5988H256.702V53.8612H276.897V58.5988H269.566ZM313.345 79.1399H307.916V69.3189H296.055V79.1399H290.626V53.8612H296.055V64.5813H307.916V53.8612H313.345V79.1399ZM324.55 77.8604C322.475 76.6846 320.826 75.0881 319.605 73.0709C318.383 71.0537 317.772 68.8578 317.772 66.4833C317.772 64.1318 318.383 61.9474 319.605 59.9302C320.826 57.9129 322.475 56.3165 324.55 55.1407C326.624 53.965 328.895 53.3771 331.362 53.3771C333.829 53.3771 336.111 53.965 338.209 55.1407C340.307 56.3165 341.967 57.9129 343.189 59.9302C344.411 61.9474 345.022 64.1318 345.022 66.4833C345.022 68.8578 344.411 71.0537 343.189 73.0709C341.967 75.0881 340.307 76.6846 338.209 77.8604C336.111 79.0361 333.829 79.624 331.362 79.624C328.895 79.624 326.624 79.0361 324.55 77.8604ZM327.281 59.4806C326.037 60.2299 325.045 61.2269 324.308 62.4719C323.57 63.7168 323.201 65.0539 323.201 66.4833C323.201 67.9126 323.57 69.2555 324.308 70.5119C325.045 71.7684 326.037 72.777 327.281 73.5378C328.526 74.2985 329.887 74.6789 331.362 74.6789C332.837 74.6789 334.203 74.2985 335.46 73.5378C336.716 72.777 337.708 71.7684 338.434 70.5119C339.16 69.2555 339.523 67.9126 339.523 66.4833C339.523 65.0539 339.16 63.7168 338.434 62.4719C337.708 61.2269 336.716 60.2299 335.46 59.4806C334.203 58.7314 332.837 58.3567 331.362 58.3567C329.887 58.3567 328.526 58.7314 327.281 59.4806ZM354.843 78.2754C353.137 77.3993 351.817 76.1544 350.883 74.5406C349.949 72.9268 349.482 71.0479 349.482 68.9039V53.8958H354.946V68.9039C354.946 70.3794 355.263 71.5609 355.897 72.4485C356.531 73.336 357.292 73.9643 358.18 74.3331C359.067 74.702 359.949 74.8864 360.825 74.8864C361.678 74.8864 362.548 74.702 363.436 74.3331C364.323 73.9643 365.078 73.336 365.701 72.4485C366.323 71.5609 366.635 70.3794 366.635 68.9039V53.8958H372.098V68.9039C372.098 71.0479 371.637 72.9268 370.715 74.5406C369.793 76.1544 368.479 77.3993 366.773 78.2754C365.067 79.1514 363.084 79.5894 360.825 79.5894C358.543 79.5894 356.548 79.1514 354.843 78.2754ZM382.404 73.728C384.04 74.385 385.539 74.7135 386.899 74.7135C388.328 74.7135 389.464 74.4369 390.305 73.8836C391.147 73.3303 391.567 72.6732 391.567 71.9125C391.567 71.29 391.32 70.7828 390.824 70.3909C390.328 69.999 389.7 69.705 388.939 69.5091C388.179 69.3131 387.176 69.0999 385.931 68.8693C384.271 68.5927 382.749 68.2354 381.366 67.7973C379.983 67.3593 378.726 66.5985 377.597 65.515C376.467 64.4315 375.902 62.9675 375.902 61.1232C375.902 58.4028 376.899 56.449 378.894 55.2617C380.888 54.0745 383.233 53.4808 385.931 53.4808C388.006 53.4808 389.81 53.7632 391.343 54.3281C392.876 54.8929 394.403 55.7401 395.925 56.8698L392.882 61.0195C391.752 60.2126 390.576 59.5786 389.354 59.1175C388.132 58.6564 386.922 58.4259 385.723 58.4259C384.663 58.4259 383.671 58.6161 382.749 58.9965C381.827 59.3769 381.366 60.0166 381.366 60.9157C381.366 61.469 381.602 61.9128 382.075 62.2471C382.548 62.5814 383.066 62.8234 383.631 62.9733C384.196 63.1231 385.112 63.3364 386.38 63.613L387.625 63.8551C389.539 64.224 391.124 64.6332 392.38 65.0827C393.637 65.5323 394.726 66.2873 395.648 67.3478C396.57 68.4083 397.031 69.8837 397.031 71.7741C397.031 74.3331 396.126 76.2812 394.317 77.6183C392.507 78.9555 390.057 79.624 386.968 79.624C382.45 79.624 378.646 78.3099 375.557 75.6818L378.461 71.4975C379.453 72.3274 380.767 73.0709 382.404 73.728ZM406.576 64.2355H418.679V69.0077H406.576V74.4023H420.27V79.1399H401.112V53.8612H420.27V58.5988H406.576V64.2355Z" fill="#06400C"/>
<path d="M151.059 108.48H148.02C147.853 104.773 144.781 103.604 142.077 103.604C140.04 103.604 136.6 104.172 136.6 107.812C136.6 109.849 138.036 110.516 139.439 110.85L146.284 112.42C149.389 113.154 151.727 115.024 151.727 118.831C151.727 124.508 146.451 126.077 142.344 126.077C137.902 126.077 136.166 124.742 135.098 123.773C133.061 121.937 132.66 119.933 132.66 117.696H135.699C135.699 122.037 139.238 123.306 142.31 123.306C144.648 123.306 148.588 122.705 148.588 119.265C148.588 116.761 147.419 115.959 143.479 115.024L138.57 113.889C137.001 113.522 133.461 112.42 133.461 108.246C133.461 104.506 135.899 100.833 141.709 100.833C150.091 100.833 150.925 105.842 151.059 108.48ZM164.636 101.467V122.571H176.791V125.443H161.397V101.467H164.636ZM204.326 113.455C204.326 107.812 201.187 103.704 195.978 103.704C190.769 103.704 187.63 107.812 187.63 113.455C187.63 119.098 190.769 123.205 195.978 123.205C201.187 123.205 204.326 119.098 204.326 113.455ZM207.666 113.455C207.666 118.631 204.927 126.077 195.978 126.077C187.029 126.077 184.291 118.631 184.291 113.455C184.291 108.279 187.029 100.833 195.978 100.833C204.927 100.833 207.666 108.279 207.666 113.455ZM227.521 115.392V112.62H238.039V125.443H235.935L235.167 122.337C233.531 124.608 230.526 126.077 227.253 126.077C223.146 126.077 221.143 124.575 219.907 123.372C216.234 119.9 216.134 115.792 216.134 113.255C216.134 107.411 219.673 100.833 227.487 100.833C231.962 100.833 236.937 103.37 237.638 108.747H234.5C233.464 104.573 229.958 103.704 227.32 103.704C223.013 103.704 219.473 107.144 219.473 113.422C219.473 118.297 221.076 123.306 227.454 123.306C228.656 123.306 230.593 123.172 232.362 121.77C234.466 120.1 235 117.963 235 115.392H227.521ZM262.001 118.464H252.384L249.88 125.443H246.541L255.557 101.467H259.23L267.912 125.443H264.372L262.001 118.464ZM253.386 115.592H260.833L257.293 105.04H257.226L253.386 115.592ZM292.342 120.835V101.467H295.48V125.443H291.841L279.652 106.075H279.586V125.443H276.447V101.467H280.287L292.275 120.835H292.342ZM318.895 104.339V101.467H338.363V104.339H330.248V125.443H327.009V104.339H318.895ZM364.963 122.571V125.443H347.265V101.467H364.729V104.339H350.504V111.685H363.627V114.557H350.504V122.571H364.963ZM385.452 113.154L393.867 125.443H389.86L383.415 115.592L376.77 125.443H372.864L381.445 113.154L373.398 101.467H377.472L383.549 110.65L389.626 101.467H393.5L385.452 113.154ZM400.532 104.339V101.467H420V104.339H411.886V125.443H408.647V104.339H400.532Z" fill="#06400C"/>
</g>
<defs>
<clipPath id="clip0_118_18">
<rect width="442.2" height="156.388" fill="white"/>
</clipPath>
</defs>
</svg>
