<svg width="46" height="38" viewBox="0 0 46 38" fill="none" xmlns="http://www.w3.org/2000/svg">
<path d="M19.1135 4.57234C19.1135 2.04515 21.162 -0.00500488 23.6908 -0.00500488C26.2196 -0.00500488 28.2682 2.04355 28.2682 4.57234C28.2682 7.10113 26.2196 9.14968 23.6908 9.14968C21.162 9.14968 19.1135 7.09953 19.1135 4.57234ZM25.0741 20.9225C26.0569 19.8727 27.4338 19.2074 29.1824 18.9362C29.5796 18.8755 30.0008 18.8388 30.4364 18.8133C30.5768 18.8085 30.7092 18.7942 30.8496 18.7942H33.573C31.5739 17.9629 30.1572 15.9846 30.1572 13.684C30.1572 12.7666 30.3853 11.897 30.7858 11.1376C29.3658 10.6191 28.056 10.6271 28.056 10.6271H18.8774C17.8515 10.651 16.9899 10.7802 16.2672 10.994C16.7155 11.7917 16.9724 12.7107 16.9724 13.684C16.9724 15.9846 15.5572 17.9614 13.5549 18.7942H15.8077C15.8348 18.791 15.8604 18.791 15.8891 18.791C16.0486 18.791 16.2225 18.7974 16.398 18.8101C16.773 18.8373 17.183 18.8947 17.6074 18.9808C19.9112 19.4643 22.6905 20.9799 22.9984 24.608L23.0016 24.6894V27.5197H23.5791L23.5823 24.6894C23.5791 24.6495 23.4994 22.6041 25.0741 20.9225ZM11.157 18.3092C13.681 18.3092 15.7343 16.2558 15.7343 13.7286C15.7343 11.2014 13.681 9.15128 11.157 9.15128C8.62979 9.15128 6.57963 11.2014 6.57963 13.7286C6.57963 16.2542 8.63138 18.3092 11.157 18.3092ZM15.5205 19.785H6.34351C-0.226554 19.9062 0.00159545 24.7356 0.00159545 24.7356L0 35.9931H0.0063818C0.0063818 36.0202 0.00159545 36.049 0.00159545 36.0729C0.00159545 37.1418 0.871115 38.005 1.93688 38.005C3.00423 38.005 3.86577 37.1418 3.86577 36.0729C3.86577 36.0474 3.86258 36.0202 3.8578 35.9931H3.86577V25.5716H5.07513L5.06555 36.6728L16.6581 36.6824L16.6485 25.5206H17.9025V35.9915H17.9089C17.9089 35.9963 17.9089 36.0011 17.9089 36.0075C17.9089 37.0748 18.7721 37.9396 19.8346 37.9396C20.902 37.9396 21.7667 37.0748 21.7667 36.0075C21.7667 36.0011 21.7667 35.9963 21.7667 35.9915V24.734C21.3439 19.71 15.5205 19.785 15.5205 19.785ZM35.395 18.3076C37.9238 18.3076 39.974 16.2574 39.974 13.7286C39.974 11.1998 37.9238 9.14968 35.395 9.14968C32.8663 9.14968 30.8161 11.1998 30.8161 13.7286C30.8177 16.2574 32.8663 18.3076 35.395 18.3076ZM39.7602 19.785H30.58C24.0083 19.9062 24.2413 24.7356 24.2413 24.7356L24.2381 35.9931H24.246C24.246 36.0202 24.2413 36.049 24.2413 36.0729C24.2413 37.1418 25.1092 38.005 26.1749 38.005C27.2423 38.005 28.1022 37.1418 28.1022 36.0729C28.1022 36.0474 28.0975 36.0202 28.0959 35.9931H28.1022V25.5716H29.3148L29.3004 36.6728L40.893 36.6824L40.8834 25.5206H42.1374V35.9915H42.1406C42.1406 35.9963 42.1406 36.0011 42.1406 36.0075C42.1406 37.0748 43.0053 37.9396 44.0711 37.9396C45.1353 37.9396 46 37.0748 46 36.0075C46 36.0011 46 35.9963 46 35.9915V24.734C45.582 19.71 39.7602 19.785 39.7602 19.785Z" fill="#939393"/>
</svg>
