<svg width="24" height="24" viewBox="0 0 24 24" fill="none" xmlns="http://www.w3.org/2000/svg">
<path d="M20.9638 17.1719C20.9158 17.027 20.6098 16.8135 20.0462 16.5321C19.8936 16.4434 19.676 16.3228 19.3945 16.1698C19.1128 16.0169 18.8571 15.8759 18.6278 15.7471C18.3981 15.6183 18.1828 15.4936 17.9818 15.373C17.9496 15.3489 17.849 15.2786 17.68 15.1616C17.5108 15.045 17.3681 14.9584 17.2511 14.9019C17.1344 14.8458 17.0197 14.8176 16.907 14.8176C16.746 14.8176 16.5449 14.9323 16.3035 15.1616C16.0622 15.3911 15.8407 15.6405 15.6396 15.9103C15.4384 16.1801 15.225 16.4294 14.9999 16.6589C14.7744 16.8884 14.5891 17.003 14.4444 17.003C14.3717 17.003 14.2811 16.9827 14.1726 16.9428C14.0641 16.9026 13.9815 16.8681 13.9248 16.8403C13.8687 16.8119 13.7723 16.7558 13.6354 16.671C13.4982 16.5865 13.4219 16.5402 13.4058 16.5321C12.303 15.9202 11.3573 15.2199 10.5683 14.4313C9.77965 13.6423 9.07923 12.6967 8.46748 11.5939C8.45945 11.5778 8.41305 11.5013 8.3286 11.3645C8.24401 11.2276 8.18764 11.1312 8.15947 11.0747C8.13131 11.0184 8.0971 10.9358 8.05692 10.8272C8.01674 10.7186 7.99657 10.6281 7.99657 10.5555C7.99657 10.4107 8.1113 10.2255 8.34073 10.0001C8.57012 9.77486 8.81973 9.56147 9.08929 9.36038C9.35907 9.1593 9.60842 8.93788 9.83789 8.69649C10.0673 8.45498 10.182 8.25386 10.182 8.09291C10.182 7.98029 10.1538 7.86548 10.0975 7.74881C10.0412 7.63188 9.95466 7.4892 9.83789 7.32008C9.72108 7.15106 9.65067 7.05054 9.62647 7.01818C9.50586 6.8171 9.38123 6.60181 9.25228 6.37239C9.12334 6.14302 8.98259 5.88734 8.82958 5.60566C8.6767 5.3241 8.55604 5.10669 8.4674 4.95378C8.18582 4.39045 7.97255 4.08445 7.82761 4.03633C7.77124 4.01218 7.68666 4 7.57408 4C7.35662 4 7.07293 4.04017 6.7228 4.12078C6.37254 4.20125 6.09693 4.28566 5.89566 4.37434C5.49318 4.54328 5.06659 5.03425 4.61576 5.84708C4.20524 6.60354 4 7.35226 4 8.0927C4 8.30985 4.01408 8.52112 4.04225 8.72656C4.07041 8.93179 4.12074 9.16323 4.19327 9.42086C4.26567 9.67839 4.32408 9.86971 4.36823 9.99429C4.41242 10.119 4.49493 10.3423 4.61572 10.6644C4.73633 10.9863 4.80886 11.1834 4.83301 11.2559C5.11471 12.0447 5.44877 12.749 5.8351 13.3688C6.47074 14.399 7.33818 15.4637 8.43691 16.5625C9.53568 17.6611 10.6002 18.5285 11.6306 19.1643C12.2504 19.5506 12.9549 19.8846 13.7437 20.1665C13.8162 20.1905 14.0133 20.2629 14.3352 20.3839C14.6572 20.5046 14.8806 20.5871 15.0053 20.6314C15.13 20.6757 15.3214 20.7341 15.5787 20.8067C15.8366 20.8792 16.0679 20.9295 16.2731 20.9579C16.4785 20.9857 16.6898 21 16.907 21C17.6474 21 18.3962 20.7946 19.1529 20.3842C19.9657 19.9336 20.4566 19.5069 20.6256 19.1042C20.7145 18.9031 20.7987 18.6274 20.8792 18.2772C20.9599 17.9271 21 17.6435 21 17.4261C21.0002 17.3131 20.9881 17.2287 20.9638 17.1719Z" fill="#333333"/>
</svg>
