<svg width="600" height="600" viewBox="0 0 600 600" fill="none" xmlns="http://www.w3.org/2000/svg">
<path d="M300 565C446.355 565 565 446.355 565 300C565 153.645 446.355 35 300 35C153.645 35 35 153.645 35 300C35 446.355 153.645 565 300 565Z" stroke="#6C6C6C" stroke-width="30"/>
<path d="M300 345C363.513 345 415 293.513 415 230C415 166.487 363.513 115 300 115C236.487 115 185 166.487 185 230C185 293.513 236.487 345 300 345Z" stroke="#6C6C6C" stroke-width="30"/>
<path d="M106.819 481.4C120.989 441.497 147.168 406.96 181.759 382.537C216.35 358.113 257.655 345 300 345C342.345 345 383.65 358.113 418.241 382.537C452.832 406.96 479.011 441.497 493.181 481.4" stroke="#6C6C6C" stroke-width="30"/>
</svg>
